<svg width="34" height="34" viewBox="0 0 34 34" fill="none" xmlns="http://www.w3.org/2000/svg">
<g clip-path="url(#clip0_14_707)">
<path d="M12.7279 22.6274L20.6263 14.729L20.6263 21.6304C20.6263 22.1819 21.0788 22.6345 21.6304 22.6345C22.1819 22.6345 22.6274 22.189 22.6274 21.6375L22.6274 12.3178C22.6274 11.7663 22.1819 11.3208 21.6304 11.3208L12.3107 11.3066C11.7592 11.3066 11.3137 11.7521 11.3137 12.3037C11.3137 12.8552 11.7592 13.3007 12.3107 13.3007L19.2121 13.3148L11.3137 21.2132C10.9248 21.6021 10.9248 22.2385 11.3137 22.6274C11.7026 23.0163 12.339 23.0163 12.7279 22.6274Z" fill="#7D8FAB"/>
</g>
<defs>
<clipPath id="clip0_14_707">
<rect width="24" height="24" fill="white" transform="translate(16.9706) rotate(45)"/>
</clipPath>
</defs>
</svg>
