<svg width="42" height="42" viewBox="0 0 42 42" fill="none" xmlns="http://www.w3.org/2000/svg">
<path d="M24.6914 0C18.585 0 13.6172 4.96781 13.6172 11.0742C13.6172 17.1806 18.585 22.1484 24.6914 22.1484C30.7978 22.1484 35.7656 17.1806 35.7656 11.0742C35.7656 4.96781 30.7978 0 24.6914 0ZM24.6914 17.2266C23.3773 17.2266 22.1525 16.5195 21.4946 15.3817C21.1542 14.7935 21.3552 14.0405 21.9434 13.7009C22.5315 13.3604 23.2846 13.5614 23.625 14.1496C23.8448 14.5294 24.2534 14.7656 24.6914 14.7656C25.3698 14.7656 25.9219 14.2136 25.9219 13.5352C25.9219 12.8568 25.3698 12.3047 24.6914 12.3047C22.6562 12.3047 21 10.6485 21 8.61328C21 6.57809 22.6562 4.92188 24.6914 4.92188C26.0055 4.92188 27.2303 5.62898 27.8882 6.76676C28.2286 7.35492 28.0276 8.10797 27.4395 8.4484C26.8505 8.78801 26.0982 8.58703 25.7578 7.99887C25.538 7.61906 25.1295 7.38281 24.6914 7.38281C24.013 7.38281 23.4609 7.93488 23.4609 8.61328C23.4609 9.29168 24.013 9.84375 24.6914 9.84375C26.7266 9.84375 28.3828 11.5 28.3828 13.5352C28.3828 15.5704 26.7266 17.2266 24.6914 17.2266Z" fill="#FA662E"/>
<path d="M1.3125 28.4648V38.3086C1.3125 38.9881 1.86342 39.5391 2.54297 39.5391H5.00391C5.68345 39.5391 6.23438 38.9881 6.23438 38.3086V27.2344H2.54297C1.86342 27.2344 1.3125 27.7853 1.3125 28.4648Z" fill="#FA662E"/>
<path d="M38.2266 27.4493C37.6113 27.4493 37.0494 27.6749 36.6179 28.0481L29.5714 34.6172H21V32.1562H27.9727C29.3319 32.1562 30.4336 31.0546 30.4336 29.6953C30.4336 28.3361 29.3319 27.2344 27.9727 27.2344H22.2305C20.662 25.6659 18.8787 24.7734 16.6343 24.7734C12.8978 24.7734 13.2349 27.2098 8.69531 27.2344V37.4719C15.1208 38.3332 17.9189 42 23.1189 42C30.1432 42 31.5443 39.4808 39.9016 31.7133C40.3848 31.2638 40.6875 30.6223 40.6875 29.9102C40.6875 28.551 39.5858 27.4493 38.2266 27.4493Z" fill="#FA662E"/>
</svg>
