<svg width="24" height="24" viewBox="0 0 24 24" fill="none" xmlns="http://www.w3.org/2000/svg">
<g clip-path="url(#clip0_6_182)">
<path d="M12 14.5719C13.4204 14.5719 14.5719 13.4204 14.5719 12C14.5719 10.5797 13.4204 9.42822 12 9.42822C10.5797 9.42822 9.42822 10.5797 9.42822 12C9.42822 13.4204 10.5797 14.5719 12 14.5719Z" fill="url(#paint0_linear_6_182)"/>
<path d="M23.9247 11.6486C21.7643 6.80497 16.8608 3.42732 12 3.42732C7.1393 3.42732 2.23571 6.80497 0.0753863 11.6486C-0.0251288 11.8721 -0.0251288 12.128 0.0753863 12.3515C2.23571 17.1951 7.1393 20.5727 12 20.5727C16.8608 20.5727 21.7643 17.1951 23.9247 12.3515C24.0251 12.1279 24.0251 11.8721 23.9247 11.6486ZM12 16.2864C9.63273 16.2864 7.71367 14.3673 7.71367 12C7.71367 9.63273 9.63273 7.71368 12 7.71368C14.3673 7.71368 16.2864 9.63273 16.2864 12C16.2864 14.3673 14.3673 16.2864 12 16.2864Z" fill="url(#paint1_linear_6_182)"/>
</g>
<defs>
<linearGradient id="paint0_linear_6_182" x1="9.42822" y1="12" x2="14.6122" y2="12" gradientUnits="userSpaceOnUse">
<stop stop-color="#FF8B38"/>
<stop offset="1" stop-color="#F3664B"/>
</linearGradient>
<linearGradient id="paint1_linear_6_182" x1="-4.47035e-08" y1="12" x2="24.1881" y2="12" gradientUnits="userSpaceOnUse">
<stop stop-color="#FF8B38"/>
<stop offset="1" stop-color="#F3664B"/>
</linearGradient>
<clipPath id="clip0_6_182">
<rect width="24" height="24" fill="white"/>
</clipPath>
</defs>
</svg>
