<svg width="24" height="24" viewBox="0 0 24 24" fill="none" xmlns="http://www.w3.org/2000/svg">
<path d="M19.5255 2.96625C19.2322 2.673 18.7582 2.673 18.465 2.96625L16.392 5.03925C15.0802 4.51125 13.6155 4.17075 12 4.17075C4.80072 4.17075 0.303724 11.1555 0.116224 11.4533C0.00522411 11.6295 -0.0232759 11.8343 0.0202241 12.0225C-0.0157759 12.201 0.00747411 12.3923 0.110224 12.5603C0.214474 12.7313 1.70172 15.102 4.34172 17.091L2.59947 18.8325C2.30622 19.1258 2.30622 19.5998 2.59947 19.893C2.74572 20.0393 2.93772 20.1128 3.12972 20.1128C3.32172 20.1128 3.51372 20.0393 3.65997 19.893L19.5255 4.02675C19.818 3.73425 19.818 3.2595 19.5255 2.96625ZM7.67997 11.9558C7.67997 9.57376 9.61797 7.63576 12 7.63576C12.534 7.63576 13.044 7.73626 13.5157 7.91476L12.27 9.16051C12.18 9.15076 12.0922 9.13576 12 9.13576C10.4452 9.13576 9.17997 10.401 9.17997 11.9558C9.17997 12.048 9.19572 12.1358 9.20472 12.2258L7.95897 13.4715C7.78047 13.0005 7.67997 12.4898 7.67997 11.9558ZM23.8837 12.5468C23.6962 12.8438 19.1992 19.8293 12 19.8293C10.1205 19.8293 8.44047 19.3725 6.97422 18.6915L9.92397 15.741C10.5405 16.0808 11.2485 16.275 12.0007 16.275C14.3827 16.275 16.3207 14.337 16.3207 11.955C16.3207 11.2028 16.1265 10.4955 15.7867 9.87826L19.1392 6.52576C22.1047 8.57926 23.7802 11.2575 23.8905 11.439C23.9932 11.607 24.0165 11.7983 23.9805 11.9768C24.0232 12.1665 23.9955 12.3705 23.8837 12.5468ZM11.0625 14.6033L14.6475 11.019C14.7525 11.3138 14.82 11.6265 14.82 11.9565C14.82 13.5113 13.5547 14.7765 12 14.7765C11.67 14.7758 11.3572 14.7083 11.0625 14.6033Z" fill="url(#paint0_linear_6_76)"/>
<defs>
<linearGradient id="paint0_linear_6_76" x1="0.000793412" y1="11.4295" x2="24.1876" y2="11.4295" gradientUnits="userSpaceOnUse">
<stop stop-color="#FF8B38"/>
<stop offset="1" stop-color="#F3664B"/>
</linearGradient>
</defs>
</svg>
