<svg width="35" height="35" viewBox="0 0 35 35" fill="none" xmlns="http://www.w3.org/2000/svg">
<g clip-path="url(#clip0_14_999)">
<path d="M26.6875 8.32707C26.1188 7.75832 25.2 7.75832 24.6313 8.32707L17.5 15.4437L10.3688 8.31249C9.80005 7.74374 8.8813 7.74374 8.31255 8.31249C7.7438 8.88124 7.7438 9.79999 8.31255 10.3687L15.4438 17.5L8.31255 24.6312C7.7438 25.2 7.7438 26.1187 8.31255 26.6875C8.8813 27.2562 9.80005 27.2562 10.3688 26.6875L17.5 19.5562L24.6313 26.6875C25.2 27.2562 26.1188 27.2562 26.6875 26.6875C27.2563 26.1187 27.2563 25.2 26.6875 24.6312L19.5563 17.5L26.6875 10.3687C27.2417 9.81457 27.2417 8.88124 26.6875 8.32707Z" fill="#303733"/>
</g>
<defs>
<clipPath id="clip0_14_999">
<rect width="35" height="35" fill="white"/>
</clipPath>
</defs>
</svg>
