<svg width="43" height="43" viewBox="0 0 43 43" fill="none" xmlns="http://www.w3.org/2000/svg">
<circle cx="21.5" cy="21.5" r="20.5" fill="url(#paint0_linear_24_1193)" stroke="white" stroke-width="2"/>
<g clip-path="url(#clip0_24_1193)">
<path d="M13 26.46V29.5C13 29.78 13.22 30 13.5 30H16.54C16.67 30 16.8 29.95 16.89 29.85L27.81 18.94L24.06 15.19L13.15 26.1C13.05 26.2 13 26.32 13 26.46ZM30.71 16.04C31.1 15.65 31.1 15.02 30.71 14.63L28.37 12.29C27.98 11.9 27.35 11.9 26.96 12.29L25.13 14.12L28.88 17.87L30.71 16.04Z" fill="white"/>
</g>
<defs>
<linearGradient id="paint0_linear_24_1193" x1="2" y1="21.5" x2="41.3056" y2="21.5" gradientUnits="userSpaceOnUse">
<stop stop-color="#FF8B38"/>
<stop offset="1" stop-color="#F3664B"/>
</linearGradient>
<clipPath id="clip0_24_1193">
<rect width="24" height="24" fill="white" transform="translate(10 9)"/>
</clipPath>
</defs>
</svg>
