<svg width="24" height="24" viewBox="0 0 24 24" fill="none" xmlns="http://www.w3.org/2000/svg">
<path fill-rule="evenodd" clip-rule="evenodd" d="M11.8445 21.6619C8.15273 21.6619 5 21.0874 5 18.7867C5 16.4859 8.13273 14.3619 11.8445 14.3619C15.5364 14.3619 18.6891 16.4653 18.6891 18.7661C18.6891 21.0659 15.5564 21.6619 11.8445 21.6619Z" fill="url(#paint0_linear_24_1144)" stroke="url(#paint1_linear_24_1144)" stroke-width="1.5" stroke-linecap="round" stroke-linejoin="round"/>
<path fill-rule="evenodd" clip-rule="evenodd" d="M11.8375 11.1737C14.2602 11.1737 16.2239 9.21002 16.2239 6.7873C16.2239 4.36457 14.2602 2.40002 11.8375 2.40002C9.41477 2.40002 7.45022 4.36457 7.45022 6.7873C7.44204 9.20184 9.39204 11.1655 11.8066 11.1737C11.8175 11.1737 11.8275 11.1737 11.8375 11.1737Z" fill="url(#paint2_linear_24_1144)" stroke="url(#paint3_linear_24_1144)" stroke-width="1.5" stroke-linecap="round" stroke-linejoin="round"/>
<defs>
<linearGradient id="paint0_linear_24_1144" x1="5" y1="18.0119" x2="18.7964" y2="18.0119" gradientUnits="userSpaceOnUse">
<stop stop-color="#FF8B38"/>
<stop offset="1" stop-color="#F3664B"/>
</linearGradient>
<linearGradient id="paint1_linear_24_1144" x1="5" y1="18.0119" x2="18.7964" y2="18.0119" gradientUnits="userSpaceOnUse">
<stop stop-color="#FF8B38"/>
<stop offset="1" stop-color="#F3664B"/>
</linearGradient>
<linearGradient id="paint2_linear_24_1144" x1="7.4502" y1="6.78684" x2="16.2926" y2="6.78684" gradientUnits="userSpaceOnUse">
<stop stop-color="#FF8B38"/>
<stop offset="1" stop-color="#F3664B"/>
</linearGradient>
<linearGradient id="paint3_linear_24_1144" x1="7.4502" y1="6.78684" x2="16.2926" y2="6.78684" gradientUnits="userSpaceOnUse">
<stop stop-color="#FF8B38"/>
<stop offset="1" stop-color="#F3664B"/>
</linearGradient>
</defs>
</svg>
