<svg width="35" height="42" viewBox="0 0 35 42" fill="none" xmlns="http://www.w3.org/2000/svg">
<path fill-rule="evenodd" clip-rule="evenodd" d="M14.9569 9.87057H26.6716C32.9614 9.87057 35.3291 13.0855 34.9632 17.8086C34.3585 25.6061 29.6895 29.9201 23.4965 29.9201H20.3697C19.52 29.9201 18.9485 30.488 18.7187 32.0267L17.3912 40.9722C17.3035 41.5523 17.0011 41.8882 16.5475 41.934H9.18722C8.49474 41.934 8.2498 41.3997 8.43124 40.2426L12.9188 11.565C13.0942 10.4171 13.7171 9.87057 14.9569 9.87057Z" fill="#009EE3"/>
<path fill-rule="evenodd" clip-rule="evenodd" d="M7.6319 0H19.3587C22.6609 0 26.5799 0.106858 29.1986 2.44246C30.9495 4.00258 31.8687 6.48473 31.6571 9.15922C30.9374 18.1994 25.582 23.2644 18.3971 23.2644H12.6153C11.6295 23.2644 10.9794 23.9239 10.7012 25.7069L9.08642 36.0873C8.98058 36.759 8.69331 37.1559 8.17924 37.2048H0.94296C0.141617 37.2048 -0.142636 36.5941 0.0660157 35.2447L5.26718 1.97228C5.47584 0.635037 6.20461 0 7.6319 0Z" fill="#113984"/>
<path fill-rule="evenodd" clip-rule="evenodd" d="M10.8691 24.6536L12.9163 11.565C13.0948 10.4171 13.7177 9.86752 14.9575 9.86752H26.6722C28.6106 9.86752 30.18 10.1728 31.4077 10.7377C30.2314 18.7856 25.0756 23.2553 18.3262 23.2553H12.5535C11.7793 23.2583 11.2108 23.6491 10.8691 24.6536Z" fill="#172C70"/>
</svg>
