<svg width="24" height="24" viewBox="0 0 24 24" fill="none" xmlns="http://www.w3.org/2000/svg">
<path d="M22.5356 17.8319C22.5165 17.6633 22.4592 17.5012 22.3682 17.3579C22.2771 17.2147 22.1547 17.094 22.0101 17.005L18.2571 14.6813C17.8981 14.4577 17.4738 14.3626 17.0537 14.4114C16.6335 14.4602 16.2424 14.6501 15.9442 14.9501L14.6983 16.1963C14.6521 16.2434 14.5937 16.2767 14.5296 16.2926C14.4655 16.3085 14.3983 16.3063 14.3354 16.2863C13.6539 16.0563 12.2391 15.3986 10.4204 13.58C8.60164 11.7614 7.94408 10.346 7.71391 9.66444C7.69396 9.60159 7.69182 9.53445 7.7077 9.47045C7.72359 9.40646 7.75689 9.34812 7.80391 9.30189L9.04977 8.05603C9.34986 7.75789 9.53983 7.3667 9.5886 6.9465C9.63736 6.52631 9.54202 6.10201 9.31819 5.74306L6.99488 1.98999C6.90564 1.8457 6.7849 1.72348 6.64172 1.63248C6.49854 1.54147 6.33662 1.48404 6.16809 1.46449C5.99957 1.44494 5.82881 1.46377 5.66859 1.51958C5.50838 1.57539 5.36287 1.66672 5.24296 1.78674L2.88601 4.14376C2.12746 4.90308 1.6405 5.89138 1.50061 6.95552C1.36071 8.01965 1.57567 9.10023 2.11219 10.0298C3.5047 12.4978 5.22957 14.7629 7.23844 16.7615C9.23712 18.7704 11.5022 20.4953 13.9703 21.8878C14.8998 22.4246 15.9805 22.6397 17.0447 22.4998C18.1089 22.3599 19.0972 21.8727 19.8563 21.1139L22.2133 18.757C22.3336 18.6373 22.4251 18.4918 22.4809 18.3316C22.5368 18.1713 22.5555 18.0005 22.5356 17.8319Z" fill="#FA662E"/>
</svg>
